<svg width="30" height="30" viewBox="0 0 30 30" fill="none" xmlns="http://www.w3.org/2000/svg">
<g clip-path="url(#clip0_6642_881)">
<path fill-rule="evenodd" clip-rule="evenodd" d="M15 0C23.271 0 30 6.72902 30 15C30 23.271 23.271 30 15 30C6.72902 30 0 23.271 0 15C0 6.72902 6.72902 0 15 0ZM15 20.0361C11.8343 20.0361 8.82402 21.5281 6.42969 24.2598C8.68264 26.3465 11.6942 27.625 15 27.625C18.3054 27.625 21.3164 26.3462 23.5693 24.2598C21.1753 21.5283 18.1656 20.0361 15 20.0361ZM15 2.375C8.03824 2.375 2.375 8.03865 2.375 15C2.375 17.7971 3.29044 20.3836 4.83594 22.4785C7.38254 19.6641 10.5337 18.0058 13.9043 17.71C11.021 17.1879 8.82637 14.6464 8.82617 11.5967C8.82617 8.17047 11.5955 5.38282 15 5.38281C18.4045 5.38281 21.1738 8.17047 21.1738 11.5967C21.1737 14.6467 18.9785 17.1883 16.0947 17.71C19.4654 18.0055 22.6155 19.6643 25.1621 22.4785C26.708 20.3836 27.625 17.7974 27.625 15C27.6248 8.03884 21.9612 2.375 15 2.375ZM15 7.75684C12.9052 7.75684 11.2002 9.47963 11.2002 11.5967C11.2004 13.7135 12.9053 15.4355 15 15.4355C17.0947 15.4355 18.7996 13.7131 18.7998 11.5967C18.7998 9.48004 17.0948 7.75684 15 7.75684Z" fill="#7653FC"/>
</g>
<defs>
<clipPath id="clip0_6642_881">
<rect width="30" height="30" fill="white"/>
</clipPath>
</defs>
</svg>